<?xml version="1.0" encoding="UTF-8" standalone="no"?>
<!-- Created with Inkscape (http://www.inkscape.org/) -->

<svg
   xmlns:dc="http://purl.org/dc/elements/1.1/"
   xmlns:cc="http://creativecommons.org/ns#"
   xmlns:rdf="http://www.w3.org/1999/02/22-rdf-syntax-ns#"
   xmlns:svg="http://www.w3.org/2000/svg"
   xmlns="http://www.w3.org/2000/svg"
   xmlns:sodipodi="http://sodipodi.sourceforge.net/DTD/sodipodi-0.dtd"
   xmlns:inkscape="http://www.inkscape.org/namespaces/inkscape"
   width="210mm"
   height="297mm"
   viewBox="0 0 744.09448819 1052.3622047"
   id="svg2"
   version="1.1"
   inkscape:version="0.92.2 (5c3e80d, 2017-08-06)"
   sodipodi:docname="logo.svg">
  <defs
     id="defs4" />
  <sodipodi:namedview
     id="base"
     pagecolor="#ffffff"
     bordercolor="#666666"
     borderopacity="1.0"
     inkscape:pageopacity="0.0"
     inkscape:pageshadow="2"
     inkscape:zoom="0.5"
     inkscape:cx="3066.3282"
     inkscape:cy="1016.7631"
     inkscape:document-units="px"
     inkscape:current-layer="layer1"
     showgrid="false"
     inkscape:window-width="1869"
     inkscape:window-height="1025"
     inkscape:window-x="51"
     inkscape:window-y="27"
     inkscape:window-maximized="1" />
  <metadata
     id="metadata7">
    <rdf:RDF>
      <cc:Work
         rdf:about="">
        <dc:format>image/svg+xml</dc:format>
        <dc:type
           rdf:resource="http://purl.org/dc/dcmitype/StillImage" />
        <dc:title />
      </cc:Work>
    </rdf:RDF>
  </metadata>
  <g
     inkscape:label="Layer 1"
     inkscape:groupmode="layer"
     id="layer1">
    <circle
       style="fill:#c4c8b7;fill-opacity:1;stroke:none;stroke-width:6;stroke-miterlimit:4;stroke-dasharray:none"
       id="path4136"
       cx="-528.57141"
       cy="240.93364"
       r="300" />
    <path
       style="fill:#ffffff;fill-rule:evenodd;stroke:#000000;stroke-width:1px;stroke-linecap:butt;stroke-linejoin:miter;stroke-opacity:1"
       d="m -638.57143,-36.209224 92.85714,22.857142 -107.14285,234.285712 97.14285,0 -7.14285,184.28571 118.57143,-22.85713 -52.85715,151.60714 L -210,343.79078 c 8.33722,-5.52185 14.28571,-504.28572 14.28571,-504.28572 l -497.14285,52.85714 z"
       id="path4138"
       inkscape:connector-curvature="0"
       sodipodi:nodetypes="cccccccsccc" />
    <rect
       transform="matrix(0,-1,1,0,0,0)"
       style="opacity:1;fill:#d45500;fill-opacity:1;stroke:none;stroke-width:6;stroke-miterlimit:4;stroke-dasharray:none"
       id="rect4204"
       width="40"
       height="100"
       x="-78.704384"
       y="2743.0894"
       rx="20"
       ry="20" />
    <rect
       ry="20"
       rx="20"
       y="2037.7358"
       x="1854.6896"
       height="100"
       width="40"
       id="rect4180"
       style="opacity:1;fill:#d45500;fill-opacity:1;stroke:none;stroke-width:6;stroke-miterlimit:4;stroke-dasharray:none"
       transform="matrix(0.70710678,-0.70710678,0.70710678,0.70710678,0,0)" />
    <rect
       transform="matrix(0.70710678,0.70710678,-0.70710678,0.70710678,0,0)"
       ry="20"
       rx="20"
       y="-1974.6896"
       x="2009.2507"
       height="200"
       width="40"
       id="rect4206"
       style="opacity:1;fill:#ffffff;fill-opacity:1;stroke:none;stroke-width:6;stroke-miterlimit:4;stroke-dasharray:none" />
    <rect
       style="opacity:1;fill:#ffffff;fill-opacity:1;stroke:none;stroke-width:6;stroke-miterlimit:4;stroke-dasharray:none"
       id="rect4208"
       width="40"
       height="200"
       x="2026.2209"
       y="-1974.6896"
       rx="20"
       ry="20"
       transform="matrix(0.70710678,0.70710678,-0.70710678,0.70710678,0,0)" />
    <rect
       style="opacity:1;fill:#d45500;fill-opacity:1;stroke:none;stroke-width:6;stroke-miterlimit:4;stroke-dasharray:none"
       id="rect4178"
       width="40"
       height="200"
       x="2017.7358"
       y="-1974.6896"
       rx="20"
       ry="20"
       transform="matrix(0.70710678,0.70710678,-0.70710678,0.70710678,0,0)" />
    <circle
       style="opacity:1;fill:#d45500;fill-opacity:1;stroke:none;stroke-width:6;stroke-miterlimit:4;stroke-dasharray:none"
       id="path4184"
       cx="2037.7358"
       cy="-2014.6896"
       r="20"
       transform="matrix(0.70710678,0.70710678,-0.70710678,0.70710678,0,0)" />
    <path
       style="opacity:1;fill:#4d4d4d;fill-opacity:1;stroke:none;stroke-width:6;stroke-miterlimit:4;stroke-dasharray:none"
       d="M 3305.7891 -3.7011719 A 20 20 0 0 0 3291.3535 2.1542969 A 20 20 0 0 0 3291.3535 30.4375 A 20 20 0 0 0 3319.6387 30.4375 A 20 20 0 0 0 3319.6387 2.1542969 A 20 20 0 0 0 3305.7891 -3.7011719 z M 3203.0898 38.705078 C 3192.0098 38.705078 3183.0898 47.625078 3183.0898 58.705078 C 3183.0898 69.691476 3191.8608 78.548307 3202.8105 78.697266 L 3242.8027 38.705078 L 3203.0898 38.705078 z M 3263.0703 38.705078 C 3257.9579 38.705078 3252.8451 40.662707 3248.9277 44.580078 L 3135.791 157.7168 C 3127.9563 165.55154 3127.9563 178.16721 3135.791 186.00195 C 3143.6258 193.8367 3156.2395 193.8367 3164.0742 186.00195 L 3277.2109 72.865234 C 3285.0457 65.030491 3285.0457 52.414821 3277.2109 44.580078 C 3273.2936 40.662707 3268.1827 38.705078 3263.0703 38.705078 z M 3240.7852 121.29102 L 3212.5 149.57422 L 3248.9277 186.00195 C 3256.7625 193.8367 3269.3762 193.8367 3277.2109 186.00195 C 3285.0457 178.16721 3285.0457 165.55154 3277.2109 157.7168 L 3240.7852 121.29102 z "
       id="rect4210" />
    <text
       xml:space="preserve"
       style="font-style:normal;font-weight:normal;line-height:0%;font-family:sans-serif;letter-spacing:0px;word-spacing:0px;fill:#000000;fill-opacity:1;stroke:none;stroke-width:1px;stroke-linecap:butt;stroke-linejoin:miter;stroke-opacity:1"
       x="3110.0322"
       y="509.31161"
       id="text4222"><tspan
         sodipodi:role="line"
         id="tspan4224"
         x="3110.0322"
         y="509.31161"
         style="font-size:40px;line-height:1.25">Tuition<tspan
   style="fill:#aa0000"
   id="tspan4228">ix</tspan></tspan></text>
    <path
       id="path4234"
       d="m 3092.645,417.87895 a 9.407858,9.407858 0 0 0 -6.7905,2.75438 9.407858,9.407858 0 0 0 0,13.30421 9.407858,9.407858 0 0 0 13.3052,0 9.407858,9.407858 0 0 0 0,-13.30421 9.407858,9.407858 0 0 0 -6.5147,-2.75438 z m -48.3091,19.9476 c -5.2119,0 -9.4078,4.19591 -9.4078,9.40787 0,5.16792 4.1257,9.33411 9.2764,9.40417 l 18.812,-18.81204 -18.6806,0 z m 28.2144,0 c -2.4048,0 -4.8099,0.92086 -6.6526,2.76356 l -53.2187,53.21872 c -3.6854,3.6854 -3.6854,9.61973 0,13.30513 3.6855,3.6854 9.6189,3.6854 13.3042,0 l 53.2187,-53.21872 c 3.6855,-3.6854 3.6855,-9.61973 0,-13.30513 -1.8426,-1.8427 -4.2468,-2.76356 -6.6516,-2.76356 z m -10.4828,38.84785 -13.3051,13.30421 17.1353,17.13535 c 3.6855,3.6854 9.6189,3.6854 13.3042,0 3.6855,-3.6854 3.6855,-9.61973 0,-13.30513 l -17.1344,-17.13443 z"
       style="opacity:1;fill:#4d4d4d;fill-opacity:1;stroke:none;stroke-width:6;stroke-miterlimit:4;stroke-dasharray:none"
       inkscape:connector-curvature="0" />
    <text
       id="text4236"
       y="649.31165"
       x="3110.0322"
       style="font-style:normal;font-weight:normal;line-height:0%;font-family:sans-serif;letter-spacing:0px;word-spacing:0px;fill:#000000;fill-opacity:1;stroke:none;stroke-width:1px;stroke-linecap:butt;stroke-linejoin:miter;stroke-opacity:1"
       xml:space="preserve"><tspan
         y="649.31165"
         x="3110.0322"
         id="tspan4238"
         sodipodi:role="line"
         style="font-style:normal;font-variant:normal;font-weight:normal;font-stretch:normal;font-size:50px;line-height:125%;font-family:Ubuntu;-inkscape-font-specification:'Ubuntu, Normal';text-align:start;writing-mode:lr-tb;text-anchor:start">Tuition<tspan
   id="tspan4240"
   style="font-style:normal;font-variant:normal;font-weight:normal;font-stretch:normal;font-size:50px;line-height:125%;font-family:Ubuntu;-inkscape-font-specification:'Ubuntu, Normal';text-align:start;writing-mode:lr-tb;text-anchor:start;fill:#aa0000">ix</tspan></tspan></text>
    <path
       inkscape:connector-curvature="0"
       style="opacity:1;fill:#4d4d4d;fill-opacity:1;stroke:none;stroke-width:6;stroke-miterlimit:4;stroke-dasharray:none"
       d="m 3092.645,577.87895 a 9.407858,9.407858 0 0 0 -6.7905,2.75438 9.407858,9.407858 0 0 0 0,13.30421 9.407858,9.407858 0 0 0 13.3052,0 9.407858,9.407858 0 0 0 0,-13.30421 9.407858,9.407858 0 0 0 -6.5147,-2.75438 z m -48.3091,19.9476 c -5.2119,0 -9.4078,4.19591 -9.4078,9.40787 0,5.16792 4.1257,9.33411 9.2764,9.40417 l 18.812,-18.81204 -18.6806,0 z m 28.2144,0 c -2.4048,0 -4.8099,0.92086 -6.6526,2.76356 l -53.2187,53.21872 c -3.6854,3.6854 -3.6854,9.61973 0,13.30513 3.6855,3.6854 9.6189,3.6854 13.3042,0 l 53.2187,-53.21872 c 3.6855,-3.6854 3.6855,-9.61973 0,-13.30513 -1.8426,-1.8427 -4.2468,-2.76356 -6.6516,-2.76356 z m -10.4828,38.84785 -13.3051,13.30421 17.1353,17.13535 c 3.6855,3.6854 9.6189,3.6854 13.3042,0 3.6855,-3.6854 3.6855,-9.61973 0,-13.30513 l -17.1344,-17.13443 z"
       id="path4242" />
    <text
       xml:space="preserve"
       style="font-style:normal;font-weight:normal;line-height:0%;font-family:sans-serif;letter-spacing:0px;word-spacing:0px;fill:#000000;fill-opacity:1;stroke:none;stroke-width:1px;stroke-linecap:butt;stroke-linejoin:miter;stroke-opacity:1"
       x="3110.0322"
       y="809.31165"
       id="text4252"><tspan
         style="font-style:normal;font-variant:normal;font-weight:normal;font-stretch:normal;font-size:50px;line-height:125%;font-family:Ubuntu;-inkscape-font-specification:'Ubuntu, Normal';text-align:start;writing-mode:lr-tb;text-anchor:start"
         sodipodi:role="line"
         id="tspan4254"
         x="3110.0322"
         y="809.31165">Tuition<tspan
   style="font-style:normal;font-variant:normal;font-weight:normal;font-stretch:normal;font-size:50px;line-height:125%;font-family:Ubuntu;-inkscape-font-specification:'Ubuntu, Normal';text-align:start;writing-mode:lr-tb;text-anchor:start;fill:#aa0000"
   id="tspan4256">ix</tspan></tspan></text>
    <path
       id="path4258"
       d="m 3092.645,757.87895 a 9.407858,9.407858 0 0 0 -6.7905,2.75438 9.407858,9.407858 0 0 0 0,13.30421 9.407858,9.407858 0 0 0 13.3052,0 9.407858,9.407858 0 0 0 0,-13.30421 9.407858,9.407858 0 0 0 -6.5147,-2.75438 z m -48.3091,19.9476 c -5.2119,0 -9.4078,4.19591 -9.4078,9.40787 0,5.16792 4.1257,9.33411 9.2764,9.40417 l 18.812,-18.81204 -18.6806,0 z m 28.2144,0 c -2.4048,0 -4.8099,0.92086 -6.6526,2.76356 l -53.2187,53.21872 c -3.6854,3.6854 -3.6854,9.61973 0,13.30513 3.6855,3.6854 9.6189,3.6854 13.3042,0 l 53.2187,-53.21872 c 3.6855,-3.6854 3.6855,-9.61973 0,-13.30513 -1.8426,-1.8427 -4.2468,-2.76356 -6.6516,-2.76356 z m -10.4828,38.84785 -13.3051,13.30421 17.1353,17.13535 c 3.6855,3.6854 9.6189,3.6854 13.3042,0 3.6855,-3.6854 3.6855,-9.61973 0,-13.30513 l -17.1344,-17.13443 z"
       style="opacity:1;fill:#4d4d4d;fill-opacity:1;stroke:none;stroke-width:6;stroke-miterlimit:4;stroke-dasharray:none"
       inkscape:connector-curvature="0" />
    <text
       xml:space="preserve"
       style="font-style:normal;font-weight:normal;line-height:0%;font-family:sans-serif;letter-spacing:0px;word-spacing:0px;fill:#000000;fill-opacity:1;stroke:none;stroke-width:1px;stroke-linecap:butt;stroke-linejoin:miter;stroke-opacity:1"
       x="3110.6565"
       y="845.19781"
       id="text4260"><tspan
         sodipodi:role="line"
         id="tspan4262"
         x="3110.6565"
         y="845.19781"
         style="font-size:22.5px;line-height:1.25;fill:#666666">A better way to manage your school</tspan></text>
    <rect
       style="fill:none;fill-opacity:1;stroke:none;stroke-width:6;stroke-miterlimit:4;stroke-dasharray:none"
       id="rect4158"
       width="300"
       height="300"
       x="1998.748"
       y="319.12012"
       inkscape:export-xdpi="90"
       inkscape:export-ydpi="90" />
    <path
       id="path4156"
       d="m 2255.2256,335.77214 a 27.272727,27.272727 0 0 0 -19.6849,7.98473 27.272727,27.272727 0 0 0 0,38.568 27.272727,27.272727 0 0 0 38.5707,0 27.272727,27.272727 0 0 0 0,-38.568 27.272727,27.272727 0 0 0 -18.8858,-7.98473 z m -140.0445,57.8267 c -15.1091,0 -27.2727,12.16364 -27.2727,27.27273 0,14.98146 11.9604,27.05895 26.8919,27.26208 l 54.5348,-54.53481 -54.154,0 z m 81.7916,0 c -6.9714,0 -13.9434,2.6695 -19.2854,8.01137 L 2023.41,555.88755 c -10.6837,10.68374 -10.6837,27.88693 0,38.57066 10.6838,10.68375 27.8843,10.68375 38.568,0 l 154.2773,-154.27734 c 10.6839,-10.68374 10.6839,-27.88693 0,-38.57066 -5.3417,-5.34187 -12.3111,-8.01137 -19.2826,-8.01137 z m -30.3888,112.61719 -38.5707,38.568 49.6741,49.67418 c 10.6839,10.68375 27.8844,10.68375 38.568,0 10.6839,-10.68373 10.6839,-27.88692 0,-38.57066 l -49.6714,-49.67152 z"
       style="opacity:1;fill:#4d4d4d;fill-opacity:1;stroke:none;stroke-width:6;stroke-miterlimit:4;stroke-dasharray:none"
       inkscape:connector-curvature="0" />
    <rect
       ry="20"
       rx="20"
       y="3763.0894"
       x="-112.45438"
       height="100"
       width="40"
       id="rect840"
       style="opacity:1;fill:#00aa00;fill-opacity:1;stroke:none;stroke-width:6;stroke-miterlimit:4;stroke-dasharray:none"
       transform="rotate(-90)" />
    <rect
       transform="rotate(-45)"
       style="opacity:1;fill:#808080;fill-opacity:1;stroke:none;stroke-width:6;stroke-miterlimit:4;stroke-dasharray:none"
       id="rect842"
       width="40"
       height="100"
       x="2552.0737"
       y="2782.8496"
       rx="20"
       ry="20" />
    <rect
       style="opacity:1;fill:#ffffff;fill-opacity:1;stroke:none;stroke-width:6;stroke-miterlimit:4;stroke-dasharray:none"
       id="rect844"
       width="40"
       height="200"
       x="2754.3645"
       y="-2672.0737"
       rx="20"
       ry="20"
       transform="rotate(45)" />
    <rect
       transform="rotate(45)"
       ry="20"
       rx="20"
       y="-2672.0737"
       x="2771.3347"
       height="200"
       width="40"
       id="rect846"
       style="opacity:1;fill:#ffffff;fill-opacity:1;stroke:none;stroke-width:6;stroke-miterlimit:4;stroke-dasharray:none" />
    <path
       style="opacity:1;fill:#4d4d4d;fill-opacity:1;stroke:none;stroke-width:6.4000001;stroke-miterlimit:4;stroke-dasharray:none"
       d="M 4092.377 78.435547 C 4089.3903 79.458419 4086.5822 81.161928 4084.1914 83.552734 L 3963.5117 204.23242 C 3955.1547 212.58948 3955.1547 226.04528 3963.5117 234.40234 C 3971.8688 242.7594 3985.3246 242.7594 3993.6816 234.40234 L 4114.3613 113.72266 C 4116.7553 111.32865 4118.46 108.51454 4119.4824 105.52344 A 21.333333 21.333333 0 0 1 4097.4453 100.46875 A 21.333333 21.333333 0 0 1 4092.377 78.435547 z "
       transform="scale(0.9375)"
       id="rect848" />
    <circle
       transform="rotate(45)"
       r="20"
       cy="-2682.9053"
       cx="2782.8496"
       id="circle850"
       style="opacity:1;fill:#4d4d4d;fill-opacity:1;stroke:none;stroke-width:6;stroke-miterlimit:4;stroke-dasharray:none" />
    <rect
       ry="20"
       rx="20"
       y="1252.8618"
       x="-9.7614727"
       height="100"
       width="40"
       id="rect855"
       style="opacity:1;fill:#d45500;fill-opacity:1;stroke:none;stroke-width:6;stroke-miterlimit:4;stroke-dasharray:none"
       transform="rotate(-90)" />
    <rect
       transform="rotate(-45)"
       style="opacity:1;fill:#d45500;fill-opacity:1;stroke:none;stroke-width:6;stroke-miterlimit:4;stroke-dasharray:none"
       id="rect857"
       width="40"
       height="100"
       x="849.68958"
       y="935.23584"
       rx="20"
       ry="20" />
    <rect
       style="opacity:1;fill:#ffffff;fill-opacity:1;stroke:none;stroke-width:6;stroke-miterlimit:4;stroke-dasharray:none"
       id="rect859"
       width="40"
       height="200"
       x="906.75073"
       y="-969.68958"
       rx="20"
       ry="20"
       transform="rotate(45)" />
    <rect
       transform="rotate(45)"
       ry="20"
       rx="20"
       y="-969.68958"
       x="923.72095"
       height="200"
       width="40"
       id="rect861"
       style="opacity:1;fill:#ffffff;fill-opacity:1;stroke:none;stroke-width:6;stroke-miterlimit:4;stroke-dasharray:none" />
    <rect
       transform="rotate(45)"
       ry="20"
       rx="20"
       y="-969.68958"
       x="915.23584"
       height="200"
       width="40"
       id="rect863"
       style="opacity:1;fill:#d45500;fill-opacity:1;stroke:none;stroke-width:6;stroke-miterlimit:4;stroke-dasharray:none" />
    <circle
       transform="rotate(45)"
       r="20"
       cy="-1009.6896"
       cx="935.23584"
       id="circle865"
       style="opacity:1;fill:#d45500;fill-opacity:1;stroke:none;stroke-width:6;stroke-miterlimit:4;stroke-dasharray:none" />
    <path
       style="fill:#333333;fill-rule:evenodd;stroke:#000000;stroke-width:0.63342702px;stroke-linecap:butt;stroke-linejoin:miter;stroke-opacity:1"
       d="m 974.08039,1497.6872 c 0,0 -184.06794,113.2859 -279.31156,73.6314 -46.78145,-19.4773 17.52065,-75.0415 17.52065,-75.0415 28.06678,51.5245 168.4241,47.0755 261.79091,1.4101 z"
       id="path869"
       inkscape:connector-curvature="0"
       sodipodi:nodetypes="cscc" />
    <path
       style="fill:#333333;fill-rule:evenodd;stroke:#000000;stroke-width:0.63342702px;stroke-linecap:butt;stroke-linejoin:miter;stroke-opacity:1"
       d="m 749.95256,1621.8294 70.46107,173.8617 1.43874,-211.6962 c -40.62808,0.4404 -74.2359,15.7979 -71.89981,37.8345 z"
       id="path871"
       inkscape:connector-curvature="0"
       sodipodi:nodetypes="cccc" />
    <path
       style="fill:#ff9955;fill-rule:evenodd;stroke:#000000;stroke-width:0.9375px;stroke-linecap:butt;stroke-linejoin:miter;stroke-opacity:1"
       d="m 1434.375,1399.2372 125.625,-9.375 -31.875,100.3125 70.3125,-32.8125 7.5,101.25 -65.625,14.0625 c -21.4011,97.3512 -12.5617,272.1408 120.0396,148.9643 l 16.8354,25.4107 c -219.5012,218.2104 -254.4109,-18.3042 -212.8125,-170.625 l -68.4375,1.875 -7.5,-65.625 73.125,-15 z"
       id="path873"
       inkscape:connector-curvature="0"
       sodipodi:nodetypes="ccccccccccccc" />
    <path
       style="fill:#333333;fill-rule:evenodd;stroke:#000000;stroke-width:0.9375px;stroke-linecap:butt;stroke-linejoin:miter;stroke-opacity:1"
       d="m 2206.875,-721.38779 c 2.1725,-109.5005 318.008,-251.33563 388.125,-37.5 27.1725,125.70891 -18.291,344.87306 -138.75,315 -144.7852,-17.10937 -256.2012,-184.57031 -249.375,-277.5 z"
       id="path875"
       inkscape:connector-curvature="0"
       sodipodi:nodetypes="cccc" />
    <path
       id="path877"
       d="m 2502.8341,-777.43277 a 20,20 0 0 0 -14.4356,5.85546 20,20 0 0 0 0,28.28321 20,20 0 0 0 28.2852,0 20,20 0 0 0 0,-28.28321 20,20 0 0 0 -13.8496,-5.85546 z m -102.6993,42.40625 c -11.08,0 -20,8.92 -20,20 0,10.98639 8.771,19.84323 19.7207,19.99218 l 39.9922,-39.99218 z m 59.9805,0 c -5.1124,0 -10.2252,1.95763 -14.1426,5.875 L 2332.836,-616.0148 c -7.8347,7.83474 -7.8347,20.45041 0,28.28515 7.8348,7.83475 20.4485,7.83475 28.2832,0 l 113.1367,-113.13672 c 7.8348,-7.83474 7.8348,-20.45041 0,-28.28515 -3.9173,-3.91737 -9.0282,-5.875 -14.1406,-5.875 z m -22.2851,82.58594 -28.2852,28.2832 36.4277,36.42773 c 7.8348,7.83475 20.4485,7.83475 28.2832,0 7.8348,-7.83474 7.8348,-20.45041 0,-28.28515 z"
       style="opacity:1;fill:#ffffff;fill-opacity:1;stroke:none;stroke-width:6;stroke-miterlimit:4;stroke-dasharray:none"
       inkscape:connector-curvature="0" />
    <path
       sodipodi:nodetypes="cccc"
       inkscape:connector-curvature="0"
       id="path879"
       d="m -283.125,1528.6122 c 2.1725,-109.5005 318.007996,-251.3356 388.125,-37.5 27.1725,125.7089 -18.291004,344.8731 -138.750004,315 C -178.5352,1789.0028 -289.9512,1621.5419 -283.125,1528.6122 Z"
       style="fill:#333333;fill-rule:evenodd;stroke:#000000;stroke-width:0.9375px;stroke-linecap:butt;stroke-linejoin:miter;stroke-opacity:1" />
    <g
       id="g887"
       style="fill:#ffffff"
       transform="translate(-170.97802,75.0577)">
      <path
         style="fill:#ffffff;fill-rule:evenodd;stroke:#000000;stroke-width:0.63342702px;stroke-linecap:butt;stroke-linejoin:miter;stroke-opacity:1"
         d="m 257.22802,1404.8045 c 0,0 -184.06794,113.2859 -279.31156,73.6314 -46.78145,-19.4773 17.52065,-75.0415 17.52065,-75.0415 28.06678,51.5245 168.4241,47.0755 261.79091,1.4101 z"
         id="path881"
         inkscape:connector-curvature="0"
         sodipodi:nodetypes="cscc" />
      <path
         style="fill:#ffffff;fill-rule:evenodd;stroke:#000000;stroke-width:0.63342702px;stroke-linecap:butt;stroke-linejoin:miter;stroke-opacity:1"
         d="M 33.10019,1528.9467 103.56126,1702.8084 105,1491.1122 c -40.62808,0.4404 -74.2359,15.7979 -71.89981,37.8345 z"
         id="path883"
         inkscape:connector-curvature="0"
         sodipodi:nodetypes="cccc" />
    </g>
    <g
       id="g913">
      <rect
         transform="rotate(-90)"
         style="opacity:1;fill:#00aa00;fill-opacity:1;stroke:none;stroke-width:6;stroke-miterlimit:4;stroke-dasharray:none"
         id="rect889"
         width="40"
         height="100"
         x="448.17062"
         y="3451.8394"
         rx="20"
         ry="20" />
      <rect
         ry="20"
         rx="20"
         y="2166.3408"
         x="2728.4084"
         height="100"
         width="40"
         id="rect891"
         style="opacity:1;fill:#333333;fill-opacity:1;stroke:none;stroke-width:6;stroke-miterlimit:4;stroke-dasharray:none"
         transform="rotate(-45)" />
      <rect
         transform="rotate(45)"
         ry="20"
         rx="20"
         y="-2848.4084"
         x="2137.8557"
         height="200"
         width="40"
         id="rect893"
         style="opacity:1;fill:#ffffff;fill-opacity:1;stroke:none;stroke-width:6;stroke-miterlimit:4;stroke-dasharray:none" />
      <rect
         style="opacity:1;fill:#ffffff;fill-opacity:1;stroke:none;stroke-width:6;stroke-miterlimit:4;stroke-dasharray:none"
         id="rect895"
         width="40"
         height="200"
         x="2154.8259"
         y="-2848.4084"
         rx="20"
         ry="20"
         transform="rotate(45)" />
      <rect
         style="opacity:1;fill:#333333;fill-opacity:1;stroke:none;stroke-width:6;stroke-miterlimit:4;stroke-dasharray:none"
         id="rect897"
         width="40"
         height="200"
         x="2146.3408"
         y="-2848.4084"
         rx="20"
         ry="20"
         transform="rotate(45)" />
      <circle
         style="opacity:1;fill:#333333;fill-opacity:1;stroke:none;stroke-width:6;stroke-miterlimit:4;stroke-dasharray:none"
         id="circle899"
         cx="2166.3408"
         cy="-2875.1492"
         r="20"
         transform="rotate(45)" />
    </g>
    <text
       id="text905"
       y="-260.18817"
       x="3356.5635"
       style="font-style:normal;font-variant:normal;font-weight:bold;font-stretch:normal;font-size:45px;line-height:0%;font-family:Lato;-inkscape-font-specification:'Lato, Bold';font-variant-ligatures:normal;font-variant-caps:normal;font-variant-numeric:normal;font-feature-settings:normal;text-align:start;letter-spacing:0px;word-spacing:0px;writing-mode:lr-tb;text-anchor:start;fill:#000000;fill-opacity:1;stroke:none;stroke-width:1px;stroke-linecap:butt;stroke-linejoin:miter;stroke-opacity:1"
       xml:space="preserve"><tspan
         style="font-style:normal;font-variant:normal;font-weight:bold;font-stretch:normal;font-size:45px;line-height:1.25;font-family:Lato;-inkscape-font-specification:'Lato, Bold';font-variant-ligatures:normal;font-variant-caps:normal;font-variant-numeric:normal;font-feature-settings:normal;text-align:start;writing-mode:lr-tb;text-anchor:start"
         y="-260.18817"
         x="3356.5635"
         id="tspan903"
         sodipodi:role="line"><tspan
   style="fill:#333333"
   id="tspan915">T u i t i o n</tspan> <tspan
   id="tspan901"
   style="font-style:normal;font-variant:normal;font-weight:bold;font-stretch:normal;font-size:45px;font-family:Lato;-inkscape-font-specification:'Lato, Bold';font-variant-ligatures:normal;font-variant-caps:normal;font-variant-numeric:normal;font-feature-settings:normal;text-align:start;writing-mode:lr-tb;text-anchor:start;fill:#00aa00">i x</tspan></tspan></text>
  </g>
</svg>
