<?xml version="1.0" encoding="UTF-8" standalone="no"?>
<!-- Created with Inkscape (http://www.inkscape.org/) -->

<svg
   xmlns:dc="http://purl.org/dc/elements/1.1/"
   xmlns:cc="http://creativecommons.org/ns#"
   xmlns:rdf="http://www.w3.org/1999/02/22-rdf-syntax-ns#"
   xmlns:svg="http://www.w3.org/2000/svg"
   xmlns="http://www.w3.org/2000/svg"
   xmlns:sodipodi="http://sodipodi.sourceforge.net/DTD/sodipodi-0.dtd"
   xmlns:inkscape="http://www.inkscape.org/namespaces/inkscape"
   width="210mm"
   height="297mm"
   viewBox="0 0 744.09448819 1052.3622047"
   id="svg2"
   version="1.1"
   inkscape:version="0.92.2 (30a58d1, 2017-08-07)"
   sodipodi:docname="logo.svg">
  <defs
     id="defs4" />
  <sodipodi:namedview
     id="base"
     pagecolor="#ffffff"
     bordercolor="#666666"
     borderopacity="1.0"
     inkscape:pageopacity="0.0"
     inkscape:pageshadow="2"
     inkscape:zoom="0.1767767"
     inkscape:cx="3349.1492"
     inkscape:cy="1800.2645"
     inkscape:document-units="px"
     inkscape:current-layer="layer1"
     showgrid="false"
     inkscape:window-width="1317"
     inkscape:window-height="744"
     inkscape:window-x="49"
     inkscape:window-y="254"
     inkscape:window-maximized="1" />
  <metadata
     id="metadata7">
    <rdf:RDF>
      <cc:Work
         rdf:about="">
        <dc:format>image/svg+xml</dc:format>
        <dc:type
           rdf:resource="http://purl.org/dc/dcmitype/StillImage" />
        <dc:title />
      </cc:Work>
    </rdf:RDF>
  </metadata>
  <g
     inkscape:label="Layer 1"
     inkscape:groupmode="layer"
     id="layer1">
    <circle
       style="fill:#c4c8b7;fill-opacity:1;stroke:none;stroke-width:6;stroke-miterlimit:4;stroke-dasharray:none"
       id="path4136"
       cx="-528.57141"
       cy="240.93364"
       r="300" />
    <path
       style="fill:#ffffff;fill-rule:evenodd;stroke:#000000;stroke-width:1px;stroke-linecap:butt;stroke-linejoin:miter;stroke-opacity:1"
       d="m -638.57143,-36.209224 92.85714,22.857142 -107.14285,234.285712 97.14285,0 -7.14285,184.28571 118.57143,-22.85713 -52.85715,151.60714 L -210,343.79078 c 8.33722,-5.52185 14.28571,-504.28572 14.28571,-504.28572 l -497.14285,52.85714 z"
       id="path4138"
       inkscape:connector-curvature="0"
       sodipodi:nodetypes="cccccccsccc" />
    <rect
       transform="matrix(0,-1,1,0,0,0)"
       style="opacity:1;fill:#d45500;fill-opacity:1;stroke:none;stroke-width:6;stroke-miterlimit:4;stroke-dasharray:none"
       id="rect4204"
       width="40"
       height="100"
       x="-78.704384"
       y="2743.0894"
       rx="20"
       ry="20" />
    <rect
       ry="20"
       rx="20"
       y="2037.7358"
       x="1854.6896"
       height="100"
       width="40"
       id="rect4180"
       style="opacity:1;fill:#d45500;fill-opacity:1;stroke:none;stroke-width:6;stroke-miterlimit:4;stroke-dasharray:none"
       transform="matrix(0.70710678,-0.70710678,0.70710678,0.70710678,0,0)" />
    <rect
       transform="matrix(0.70710678,0.70710678,-0.70710678,0.70710678,0,0)"
       ry="20"
       rx="20"
       y="-1974.6896"
       x="2009.2507"
       height="200"
       width="40"
       id="rect4206"
       style="opacity:1;fill:#ffffff;fill-opacity:1;stroke:none;stroke-width:6;stroke-miterlimit:4;stroke-dasharray:none" />
    <rect
       style="opacity:1;fill:#ffffff;fill-opacity:1;stroke:none;stroke-width:6;stroke-miterlimit:4;stroke-dasharray:none"
       id="rect4208"
       width="40"
       height="200"
       x="2026.2209"
       y="-1974.6896"
       rx="20"
       ry="20"
       transform="matrix(0.70710678,0.70710678,-0.70710678,0.70710678,0,0)" />
    <rect
       style="opacity:1;fill:#d45500;fill-opacity:1;stroke:none;stroke-width:6;stroke-miterlimit:4;stroke-dasharray:none"
       id="rect4178"
       width="40"
       height="200"
       x="2017.7358"
       y="-1974.6896"
       rx="20"
       ry="20"
       transform="matrix(0.70710678,0.70710678,-0.70710678,0.70710678,0,0)" />
    <circle
       style="opacity:1;fill:#d45500;fill-opacity:1;stroke:none;stroke-width:6;stroke-miterlimit:4;stroke-dasharray:none"
       id="path4184"
       cx="2037.7358"
       cy="-2014.6896"
       r="20"
       transform="matrix(0.70710678,0.70710678,-0.70710678,0.70710678,0,0)" />
    <path
       style="opacity:1;fill:#4d4d4d;fill-opacity:1;stroke:none;stroke-width:6;stroke-miterlimit:4;stroke-dasharray:none"
       d="M 3305.7891 -3.7011719 A 20 20 0 0 0 3291.3535 2.1542969 A 20 20 0 0 0 3291.3535 30.4375 A 20 20 0 0 0 3319.6387 30.4375 A 20 20 0 0 0 3319.6387 2.1542969 A 20 20 0 0 0 3305.7891 -3.7011719 z M 3203.0898 38.705078 C 3192.0098 38.705078 3183.0898 47.625078 3183.0898 58.705078 C 3183.0898 69.691476 3191.8608 78.548307 3202.8105 78.697266 L 3242.8027 38.705078 L 3203.0898 38.705078 z M 3263.0703 38.705078 C 3257.9579 38.705078 3252.8451 40.662707 3248.9277 44.580078 L 3135.791 157.7168 C 3127.9563 165.55154 3127.9563 178.16721 3135.791 186.00195 C 3143.6258 193.8367 3156.2395 193.8367 3164.0742 186.00195 L 3277.2109 72.865234 C 3285.0457 65.030491 3285.0457 52.414821 3277.2109 44.580078 C 3273.2936 40.662707 3268.1827 38.705078 3263.0703 38.705078 z M 3240.7852 121.29102 L 3212.5 149.57422 L 3248.9277 186.00195 C 3256.7625 193.8367 3269.3762 193.8367 3277.2109 186.00195 C 3285.0457 178.16721 3285.0457 165.55154 3277.2109 157.7168 L 3240.7852 121.29102 z "
       id="rect4210" />
    <text
       xml:space="preserve"
       style="font-style:normal;font-weight:normal;line-height:0%;font-family:sans-serif;letter-spacing:0px;word-spacing:0px;fill:#000000;fill-opacity:1;stroke:none;stroke-width:1px;stroke-linecap:butt;stroke-linejoin:miter;stroke-opacity:1"
       x="3110.0322"
       y="509.31161"
       id="text4222"><tspan
         sodipodi:role="line"
         id="tspan4224"
         x="3110.0322"
         y="509.31161"
         style="font-size:40px;line-height:1.25">Tuition<tspan
   style="fill:#aa0000"
   id="tspan4228">ix</tspan></tspan></text>
    <path
       id="path4234"
       d="m 3092.645,417.87895 a 9.407858,9.407858 0 0 0 -6.7905,2.75438 9.407858,9.407858 0 0 0 0,13.30421 9.407858,9.407858 0 0 0 13.3052,0 9.407858,9.407858 0 0 0 0,-13.30421 9.407858,9.407858 0 0 0 -6.5147,-2.75438 z m -48.3091,19.9476 c -5.2119,0 -9.4078,4.19591 -9.4078,9.40787 0,5.16792 4.1257,9.33411 9.2764,9.40417 l 18.812,-18.81204 -18.6806,0 z m 28.2144,0 c -2.4048,0 -4.8099,0.92086 -6.6526,2.76356 l -53.2187,53.21872 c -3.6854,3.6854 -3.6854,9.61973 0,13.30513 3.6855,3.6854 9.6189,3.6854 13.3042,0 l 53.2187,-53.21872 c 3.6855,-3.6854 3.6855,-9.61973 0,-13.30513 -1.8426,-1.8427 -4.2468,-2.76356 -6.6516,-2.76356 z m -10.4828,38.84785 -13.3051,13.30421 17.1353,17.13535 c 3.6855,3.6854 9.6189,3.6854 13.3042,0 3.6855,-3.6854 3.6855,-9.61973 0,-13.30513 l -17.1344,-17.13443 z"
       style="opacity:1;fill:#4d4d4d;fill-opacity:1;stroke:none;stroke-width:6;stroke-miterlimit:4;stroke-dasharray:none"
       inkscape:connector-curvature="0" />
    <text
       id="text4236"
       y="649.31165"
       x="3110.0322"
       style="font-style:normal;font-weight:normal;line-height:0%;font-family:sans-serif;letter-spacing:0px;word-spacing:0px;fill:#000000;fill-opacity:1;stroke:none;stroke-width:1px;stroke-linecap:butt;stroke-linejoin:miter;stroke-opacity:1"
       xml:space="preserve"><tspan
         y="649.31165"
         x="3110.0322"
         id="tspan4238"
         sodipodi:role="line"
         style="font-style:normal;font-variant:normal;font-weight:normal;font-stretch:normal;font-size:50px;line-height:125%;font-family:Ubuntu;-inkscape-font-specification:'Ubuntu, Normal';text-align:start;writing-mode:lr-tb;text-anchor:start">Tuition<tspan
   id="tspan4240"
   style="font-style:normal;font-variant:normal;font-weight:normal;font-stretch:normal;font-size:50px;line-height:125%;font-family:Ubuntu;-inkscape-font-specification:'Ubuntu, Normal';text-align:start;writing-mode:lr-tb;text-anchor:start;fill:#aa0000">ix</tspan></tspan></text>
    <path
       inkscape:connector-curvature="0"
       style="opacity:1;fill:#4d4d4d;fill-opacity:1;stroke:none;stroke-width:6;stroke-miterlimit:4;stroke-dasharray:none"
       d="m 3092.645,577.87895 a 9.407858,9.407858 0 0 0 -6.7905,2.75438 9.407858,9.407858 0 0 0 0,13.30421 9.407858,9.407858 0 0 0 13.3052,0 9.407858,9.407858 0 0 0 0,-13.30421 9.407858,9.407858 0 0 0 -6.5147,-2.75438 z m -48.3091,19.9476 c -5.2119,0 -9.4078,4.19591 -9.4078,9.40787 0,5.16792 4.1257,9.33411 9.2764,9.40417 l 18.812,-18.81204 -18.6806,0 z m 28.2144,0 c -2.4048,0 -4.8099,0.92086 -6.6526,2.76356 l -53.2187,53.21872 c -3.6854,3.6854 -3.6854,9.61973 0,13.30513 3.6855,3.6854 9.6189,3.6854 13.3042,0 l 53.2187,-53.21872 c 3.6855,-3.6854 3.6855,-9.61973 0,-13.30513 -1.8426,-1.8427 -4.2468,-2.76356 -6.6516,-2.76356 z m -10.4828,38.84785 -13.3051,13.30421 17.1353,17.13535 c 3.6855,3.6854 9.6189,3.6854 13.3042,0 3.6855,-3.6854 3.6855,-9.61973 0,-13.30513 l -17.1344,-17.13443 z"
       id="path4242" />
    <text
       xml:space="preserve"
       style="font-style:normal;font-weight:normal;line-height:0%;font-family:sans-serif;letter-spacing:0px;word-spacing:0px;fill:#000000;fill-opacity:1;stroke:none;stroke-width:1px;stroke-linecap:butt;stroke-linejoin:miter;stroke-opacity:1"
       x="3110.0322"
       y="809.31165"
       id="text4252"><tspan
         style="font-style:normal;font-variant:normal;font-weight:normal;font-stretch:normal;font-size:50px;line-height:125%;font-family:Ubuntu;-inkscape-font-specification:'Ubuntu, Normal';text-align:start;writing-mode:lr-tb;text-anchor:start"
         sodipodi:role="line"
         id="tspan4254"
         x="3110.0322"
         y="809.31165">Tuition<tspan
   style="font-style:normal;font-variant:normal;font-weight:normal;font-stretch:normal;font-size:50px;line-height:125%;font-family:Ubuntu;-inkscape-font-specification:'Ubuntu, Normal';text-align:start;writing-mode:lr-tb;text-anchor:start;fill:#aa0000"
   id="tspan4256">ix</tspan></tspan></text>
    <path
       id="path4258"
       d="m 3092.645,757.87895 a 9.407858,9.407858 0 0 0 -6.7905,2.75438 9.407858,9.407858 0 0 0 0,13.30421 9.407858,9.407858 0 0 0 13.3052,0 9.407858,9.407858 0 0 0 0,-13.30421 9.407858,9.407858 0 0 0 -6.5147,-2.75438 z m -48.3091,19.9476 c -5.2119,0 -9.4078,4.19591 -9.4078,9.40787 0,5.16792 4.1257,9.33411 9.2764,9.40417 l 18.812,-18.81204 -18.6806,0 z m 28.2144,0 c -2.4048,0 -4.8099,0.92086 -6.6526,2.76356 l -53.2187,53.21872 c -3.6854,3.6854 -3.6854,9.61973 0,13.30513 3.6855,3.6854 9.6189,3.6854 13.3042,0 l 53.2187,-53.21872 c 3.6855,-3.6854 3.6855,-9.61973 0,-13.30513 -1.8426,-1.8427 -4.2468,-2.76356 -6.6516,-2.76356 z m -10.4828,38.84785 -13.3051,13.30421 17.1353,17.13535 c 3.6855,3.6854 9.6189,3.6854 13.3042,0 3.6855,-3.6854 3.6855,-9.61973 0,-13.30513 l -17.1344,-17.13443 z"
       style="opacity:1;fill:#4d4d4d;fill-opacity:1;stroke:none;stroke-width:6;stroke-miterlimit:4;stroke-dasharray:none"
       inkscape:connector-curvature="0" />
    <text
       xml:space="preserve"
       style="font-style:normal;font-weight:normal;line-height:0%;font-family:sans-serif;letter-spacing:0px;word-spacing:0px;fill:#000000;fill-opacity:1;stroke:none;stroke-width:1px;stroke-linecap:butt;stroke-linejoin:miter;stroke-opacity:1"
       x="3110.6565"
       y="845.19781"
       id="text4260"><tspan
         sodipodi:role="line"
         id="tspan4262"
         x="3110.6565"
         y="845.19781"
         style="font-size:22.5px;line-height:1.25;fill:#666666">A better way to manage your school</tspan></text>
    <rect
       style="fill:none;fill-opacity:1;stroke:none;stroke-width:6;stroke-miterlimit:4;stroke-dasharray:none"
       id="rect4158"
       width="300"
       height="300"
       x="1998.748"
       y="319.12012"
       inkscape:export-xdpi="90"
       inkscape:export-ydpi="90" />
    <path
       id="path4156"
       d="m 2255.2256,335.77214 a 27.272727,27.272727 0 0 0 -19.6849,7.98473 27.272727,27.272727 0 0 0 0,38.568 27.272727,27.272727 0 0 0 38.5707,0 27.272727,27.272727 0 0 0 0,-38.568 27.272727,27.272727 0 0 0 -18.8858,-7.98473 z m -140.0445,57.8267 c -15.1091,0 -27.2727,12.16364 -27.2727,27.27273 0,14.98146 11.9604,27.05895 26.8919,27.26208 l 54.5348,-54.53481 -54.154,0 z m 81.7916,0 c -6.9714,0 -13.9434,2.6695 -19.2854,8.01137 L 2023.41,555.88755 c -10.6837,10.68374 -10.6837,27.88693 0,38.57066 10.6838,10.68375 27.8843,10.68375 38.568,0 l 154.2773,-154.27734 c 10.6839,-10.68374 10.6839,-27.88693 0,-38.57066 -5.3417,-5.34187 -12.3111,-8.01137 -19.2826,-8.01137 z m -30.3888,112.61719 -38.5707,38.568 49.6741,49.67418 c 10.6839,10.68375 27.8844,10.68375 38.568,0 10.6839,-10.68373 10.6839,-27.88692 0,-38.57066 l -49.6714,-49.67152 z"
       style="opacity:1;fill:#4d4d4d;fill-opacity:1;stroke:none;stroke-width:6;stroke-miterlimit:4;stroke-dasharray:none"
       inkscape:connector-curvature="0" />
    <rect
       ry="20"
       rx="20"
       y="3771.9297"
       x="573.60162"
       height="100"
       width="40"
       id="rect164"
       style="opacity:1;fill:#00d400;fill-opacity:1;stroke:none;stroke-width:6;stroke-miterlimit:4;stroke-dasharray:none"
       transform="rotate(-90)" />
    <rect
       transform="rotate(-45)"
       style="opacity:1;fill:#333333;fill-opacity:1;stroke:none;stroke-width:6;stroke-miterlimit:4;stroke-dasharray:none"
       id="rect166"
       width="40"
       height="100"
       x="3043.4395"
       y="2303.9858"
       rx="20"
       ry="20" />
    <rect
       style="opacity:1;fill:#ffffff;fill-opacity:1;stroke:none;stroke-width:6;stroke-miterlimit:4;stroke-dasharray:none"
       id="rect168"
       width="40"
       height="200"
       x="2275.5007"
       y="-3163.4395"
       rx="20"
       ry="20"
       transform="rotate(45)" />
    <rect
       transform="rotate(45)"
       ry="20"
       rx="20"
       y="-3163.4395"
       x="2292.4709"
       height="200"
       width="40"
       id="rect170"
       style="opacity:1;fill:#ffffff;fill-opacity:1;stroke:none;stroke-width:6;stroke-miterlimit:4;stroke-dasharray:none" />
    <rect
       transform="rotate(45)"
       ry="20"
       rx="20"
       y="-3163.4395"
       x="2283.9858"
       height="200"
       width="40"
       id="rect172"
       style="opacity:1;fill:#333333;fill-opacity:1;stroke:none;stroke-width:6;stroke-miterlimit:4;stroke-dasharray:none" />
    <circle
       transform="rotate(45)"
       r="20"
       cy="-3203.4395"
       cx="2303.9858"
       id="circle174"
       style="opacity:1;fill:#333333;fill-opacity:1;stroke:none;stroke-width:6;stroke-miterlimit:4;stroke-dasharray:none" />
  </g>
</svg>
