<?xml version="1.0" encoding="UTF-8" standalone="no"?>
<svg
   xmlns:dc="http://purl.org/dc/elements/1.1/"
   xmlns:cc="http://creativecommons.org/ns#"
   xmlns:rdf="http://www.w3.org/1999/02/22-rdf-syntax-ns#"
   xmlns:svg="http://www.w3.org/2000/svg"
   xmlns="http://www.w3.org/2000/svg"
   id="svg6493"
   version="1.1"
   viewBox="0 0 33.866666 33.866668"
   height="128"
   width="128">
  <defs
     id="defs6487" />
  <metadata
     id="metadata6490">
    <rdf:RDF>
      <cc:Work
         rdf:about="">
        <dc:format>image/svg+xml</dc:format>
        <dc:type
           rdf:resource="http://purl.org/dc/dcmitype/StillImage" />
        <dc:title></dc:title>
      </cc:Work>
    </rdf:RDF>
  </metadata>
  <g
     transform="translate(0,-263.13332)"
     id="layer1">
    <path
       id="rect5094"
       d="M 2.11666,267.36665 C 0.94403,267.36665 0,268.31069 0,269.48332 v 12.7 c 0,1.17263 0.94403,2.11667 2.11666,2.11667 H 31.75 c 1.17263,0 2.11666,-0.94404 2.11666,-2.11667 v -12.7 c 0,-1.17263 -0.94403,-2.11667 -2.11666,-2.11667 z m 0.79375,2.11667 h 28.04584 c 0.43973,0 0.79375,0.35401 0.79375,0.79375 v 11.1125 c 0,0.43974 -0.35402,0.79375 -0.79375,0.79375 H 2.91041 c -0.43973,0 -0.79375,-0.35401 -0.79375,-0.79375 v -11.1125 c 0,-0.43974 0.35402,-0.79375 0.79375,-0.79375 z m 25.66459,2.11667 c -0.58632,0 -1.05834,0.47201 -1.05834,1.05833 0,0.58632 0.47202,1.05833 1.05834,1.05833 0.58631,0 1.05833,-0.47201 1.05833,-1.05833 0,-0.58632 -0.47202,-1.05833 -1.05833,-1.05833 z m -23.28334,7.40833 c -0.58631,0 -1.05833,0.47202 -1.05833,1.05833 0,0.58632 0.47202,1.05834 1.05833,1.05834 H 28.575 c 0.58631,0 1.05833,-0.47202 1.05833,-1.05834 0,-0.58631 -0.47202,-1.05833 -1.05833,-1.05833 z m 3.3941,8.24652 c -0.27053,0 -0.54099,0.10328 -0.74826,0.31058 l -1.49657,1.49707 c -0.41457,0.41459 -0.41457,1.08196 0,1.49654 0.23281,0.23282 0.54478,0.32994 0.84749,0.30128 l -0.84749,0.84801 c -0.41457,0.41459 -0.41457,1.08196 0,1.49655 0.41461,0.41459 1.08196,0.41459 1.49657,0 l 1.49653,-1.49655 c 0.4146,-0.41459 0.4146,-1.08248 0,-1.49707 -0.23273,-0.23274 -0.54483,-0.32984 -0.84748,-0.30127 l 0.84748,-0.84749 c 0.4146,-0.41459 0.4146,-1.08248 0,-1.49707 -0.20727,-0.2073 -0.47773,-0.31058 -0.74827,-0.31058 z m 5.82084,0 c -0.27054,0 -0.541,0.10328 -0.74827,0.31058 l -1.49707,1.49707 c -0.4146,0.41459 -0.4146,1.08196 0,1.49654 0.23281,0.23282 0.54528,0.32994 0.84799,0.30128 l -0.84748,0.84801 c -0.41458,0.41459 -0.41458,1.08196 0,1.49655 0.4146,0.41459 1.08196,0.41459 1.49656,0 l 1.49654,-1.49655 c 0.4146,-0.41459 0.4146,-1.08248 0,-1.49707 -0.23273,-0.23274 -0.54483,-0.32984 -0.84749,-0.30127 l 0.84749,-0.84749 c 0.4146,-0.41459 0.4146,-1.08248 0,-1.49707 -0.20728,-0.2073 -0.47774,-0.31058 -0.74827,-0.31058 z m 4.85343,0 c -0.27048,0 -0.54149,0.10328 -0.74877,0.31058 -0.4146,0.41459 -0.4146,1.08248 0,1.49707 l 0.84799,0.84749 c -0.30271,-0.0287 -0.61518,0.0685 -0.84799,0.30127 -0.4146,0.41459 -0.4146,1.08248 0,1.49707 l 1.49707,1.49655 c 0.41457,0.41459 1.08196,0.41459 1.49654,0 0.4146,-0.41459 0.4146,-1.08196 0,-1.49655 l -0.84749,-0.84801 c 0.30268,0.0286 0.61476,-0.0685 0.84749,-0.30128 0.4146,-0.41458 0.4146,-1.08195 0,-1.49654 l -1.49654,-1.49707 c -0.2073,-0.2073 -0.47776,-0.31058 -0.7483,-0.31058 z m 5.82084,0 c -0.27049,0 -0.54097,0.10328 -0.74827,0.31058 -0.41458,0.41459 -0.41458,1.08248 0,1.49707 l 0.84749,0.84749 c -0.30271,-0.0287 -0.61519,0.0685 -0.84799,0.30127 -0.41461,0.41459 -0.41461,1.08248 0,1.49707 l 1.49706,1.49655 c 0.41458,0.41459 1.08196,0.41459 1.49654,0 0.4146,-0.41459 0.4146,-1.08196 0,-1.49655 l -0.84749,-0.84801 c 0.30269,0.0286 0.61476,-0.0685 0.84749,-0.30128 0.4146,-0.41458 0.4146,-1.08195 0,-1.49654 l -1.49654,-1.49707 c -0.2073,-0.2073 -0.47776,-0.31058 -0.74829,-0.31058 z"
       style="opacity:1;fill:#000000;fill-opacity:1;stroke:none;stroke-width:0.26458332;stroke-miterlimit:4;stroke-dasharray:none;stroke-dashoffset:0;stroke-opacity:1" />
  </g>
</svg>
