<?xml version="1.0" encoding="UTF-8" standalone="no"?>
<svg
   xmlns:dc="http://purl.org/dc/elements/1.1/"
   xmlns:cc="http://creativecommons.org/ns#"
   xmlns:rdf="http://www.w3.org/1999/02/22-rdf-syntax-ns#"
   xmlns:svg="http://www.w3.org/2000/svg"
   xmlns="http://www.w3.org/2000/svg"
   id="svg5256"
   version="1.1"
   viewBox="0 0 33.866666 33.866668"
   height="128"
   width="128">
  <defs
     id="defs5250" />
  <metadata
     id="metadata5253">
    <rdf:RDF>
      <cc:Work
         rdf:about="">
        <dc:format>image/svg+xml</dc:format>
        <dc:type
           rdf:resource="http://purl.org/dc/dcmitype/StillImage" />
        <dc:title></dc:title>
      </cc:Work>
    </rdf:RDF>
  </metadata>
  <g
     transform="translate(0,-263.13332)"
     id="layer1">
    <path
       id="rect5826"
       d="m 11.959482,264.56424 c -0.902414,0.0348 -1.71196,0.64808 -1.958551,1.56838 l -0.2883432,1.0759 H 2.116665 c -1.17263332,0 -2.116666637832,0.94404 -2.116666637832,2.11667 v 0.15813 12.54187 0.15813 c 0,1.17263 0.944033317832,2.11667 2.116666637832,2.11667 h 3.0163558 l -2.2541177,8.41189 c -0.3035035,1.13267 0.3644106,2.28859 1.4970654,2.59208 l 1.0221648,0.27389 c 1.1326548,0.3035 2.289122,-0.36387 2.5925991,-1.49655 l 2.6205126,-9.78131 h 12.64367 l 2.621016,9.78131 c 0.303503,1.13268 1.459917,1.80005 2.592625,1.49655 l 1.022138,-0.27389 c 1.132682,-0.30349 1.80004,-1.45941 1.496563,-2.59208 l -2.253615,-8.41189 h 3.016356 c 1.172633,0 2.116667,-0.94404 2.116667,-2.11667 v -0.15813 -12.54187 -0.15813 c 0,-1.17263 -0.944034,-2.11667 -2.116667,-2.11667 h -7.595923 l -0.288343,-1.0759 c -0.246591,-0.9203 -1.056111,-1.53356 -1.958551,-1.56838 -0.208254,-0.008 -0.421693,0.0149 -0.634048,0.0718 l -1.022165,0.27388 c -1.034732,0.27727 -1.677326,1.26612 -1.549797,2.29857 h -3.535679 c 0.127582,-1.03244 -0.515012,-2.0213 -1.549797,-2.29857 l -1.022139,-0.27388 c -0.212407,-0.0569 -0.425794,-0.0799 -0.634074,-0.0718 z m 0.23667,2.17816 c 0.034,-0.005 0.06951,-0.003 0.104907,0.007 l 0.51107,0.13694 c 0.141075,0.0378 0.223996,0.18138 0.187086,0.32246 h -1.095031 l 0.07287,-0.27233 c 0.02839,-0.10619 0.116946,-0.17969 0.219101,-0.19379 z m 9.474359,0 c 0.102155,0.0141 0.190659,0.0876 0.219101,0.19379 l 0.07287,0.27233 h -1.095534 c -0.03688,-0.14108 0.04604,-0.28466 0.18706,-0.32246 l 0.511599,-0.13694 c 0.0354,-0.01 0.0708,-0.0114 0.104907,-0.007 z M 7.3240883,284.29999 h 1.0960629 l -2.4055387,8.97774 c -0.037888,0.14159 -0.1824303,0.22501 -0.3240088,0.18707 l -0.5115983,-0.13694 c -0.1415786,-0.0379 -0.2250017,-0.18242 -0.1870604,-0.32401 z m 18.1224237,0 h 1.095534 l 2.332169,8.70386 c 0.03799,0.14159 -0.04551,0.28607 -0.187087,0.32401 l -0.511069,0.13694 c -0.141605,0.0379 -0.286094,-0.0455 -0.324008,-0.18707 z"
       style="opacity:1;fill:#000000;fill-opacity:1;stroke:none;stroke-width:0.26458332;stroke-miterlimit:4;stroke-dasharray:none;stroke-dashoffset:0;stroke-opacity:1" />
  </g>
</svg>
