<?xml version="1.0" encoding="UTF-8" standalone="no"?>
<svg
   xmlns:dc="http://purl.org/dc/elements/1.1/"
   xmlns:cc="http://creativecommons.org/ns#"
   xmlns:rdf="http://www.w3.org/1999/02/22-rdf-syntax-ns#"
   xmlns:svg="http://www.w3.org/2000/svg"
   xmlns="http://www.w3.org/2000/svg"
   id="svg7086"
   version="1.1"
   viewBox="0 0 33.866666 33.866668"
   height="128"
   width="128">
  <defs
     id="defs7080" />
  <metadata
     id="metadata7083">
    <rdf:RDF>
      <cc:Work
         rdf:about="">
        <dc:format>image/svg+xml</dc:format>
        <dc:type
           rdf:resource="http://purl.org/dc/dcmitype/StillImage" />
        <dc:title></dc:title>
      </cc:Work>
    </rdf:RDF>
  </metadata>
  <g
     transform="translate(0,-263.13332)"
     id="layer1">
    <path
       id="rect5088"
       d="m 16.93333,263.13332 c -0.58632,0 -1.05833,0.47202 -1.05833,1.05833 v 1.05834 H 4.23333 c -0.58632,0 -1.05833,0.47201 -1.05833,1.05833 0,0.58632 0.47201,1.05833 1.05833,1.05833 v 15.875 c 0,0.58632 0.47202,1.05834 1.05833,1.05834 H 15.875 v 1.23093 c -0.0681,0.0665 -0.13134,0.13967 -0.1814,0.22634 l -5.29167,9.16533 c -0.29316,0.50777 -0.12017,1.15275 0.38759,1.44591 0.50776,0.29316 1.15223,0.12019 1.44539,-0.38757 l 3.64009,-6.30401 v 3.83904 c 0,0.58632 0.47201,1.05833 1.05833,1.05833 0.58632,0 1.05833,-0.47201 1.05833,-1.05833 v -3.83904 l 3.63956,6.30401 c 0.29316,0.50776 0.93816,0.68073 1.44592,0.38757 0.50776,-0.29316 0.68022,-0.93814 0.38706,-1.44591 l -5.29167,-9.16533 c -0.05,-0.0866 -0.11281,-0.15986 -0.18087,-0.22634 v -1.23093 H 28.575 c 0.58631,0 1.05833,-0.47202 1.05833,-1.05834 v -15.875 c 0.58632,0 1.05833,-0.47201 1.05833,-1.05833 0,-0.58632 -0.47201,-1.05833 -1.05833,-1.05833 H 17.99166 v -1.05834 c 0,-0.58631 -0.47201,-1.05833 -1.05833,-1.05833 z M 6.35,267.36665 h 21.16666 v 14.81667 H 6.35 Z m 16.75712,2.42001 c -0.27054,0 -0.541,0.1038 -0.7483,0.31109 l -5.23843,5.23844 -1.49653,-1.49655 c -0.41461,-0.41459 -1.08249,-0.41459 -1.49707,0 l -4.11604,4.11551 c -0.41458,0.41459 -0.41458,1.08248 0,1.49707 0.4146,0.41459 1.08249,0.41459 1.49706,0 l 3.36775,-3.36775 1.49656,1.49655 c 0.41458,0.41458 1.08196,0.41458 1.49654,0 l 5.98673,-5.98672 c 0.41457,-0.41459 0.41457,-1.08196 0,-1.49655 -0.2073,-0.20729 -0.47776,-0.31109 -0.74827,-0.31109 z"
       style="opacity:1;fill:#000000;fill-opacity:1;stroke:none;stroke-width:0.26458332;stroke-miterlimit:4;stroke-dasharray:none;stroke-dashoffset:0;stroke-opacity:1" />
  </g>
</svg>
