<?xml version="1.0" encoding="UTF-8" standalone="no"?>
<!-- Created with Inkscape (http://www.inkscape.org/) -->

<svg
   xmlns:dc="http://purl.org/dc/elements/1.1/"
   xmlns:cc="http://creativecommons.org/ns#"
   xmlns:rdf="http://www.w3.org/1999/02/22-rdf-syntax-ns#"
   xmlns:svg="http://www.w3.org/2000/svg"
   xmlns="http://www.w3.org/2000/svg"
   xmlns:sodipodi="http://sodipodi.sourceforge.net/DTD/sodipodi-0.dtd"
   xmlns:inkscape="http://www.inkscape.org/namespaces/inkscape"
   width="128"
   height="128"
   viewBox="0 0 33.866666 33.866668"
   version="1.1"
   id="svg320"
   inkscape:version="0.92.1 r15371"
   sodipodi:docname="sound.svg">
  <defs
     id="defs314" />
  <sodipodi:namedview
     id="base"
     pagecolor="#ffffff"
     bordercolor="#666666"
     borderopacity="1.0"
     inkscape:pageopacity="0.0"
     inkscape:pageshadow="2"
     inkscape:zoom="2.8"
     inkscape:cx="-35.319754"
     inkscape:cy="118.3788"
     inkscape:document-units="mm"
     inkscape:current-layer="layer1"
     showgrid="false"
     units="px"
     inkscape:window-width="1871"
     inkscape:window-height="1056"
     inkscape:window-x="49"
     inkscape:window-y="24"
     inkscape:window-maximized="1" />
  <metadata
     id="metadata317">
    <rdf:RDF>
      <cc:Work
         rdf:about="">
        <dc:format>image/svg+xml</dc:format>
        <dc:type
           rdf:resource="http://purl.org/dc/dcmitype/StillImage" />
        <dc:title></dc:title>
      </cc:Work>
    </rdf:RDF>
  </metadata>
  <g
     inkscape:label="Layer 1"
     inkscape:groupmode="layer"
     id="layer1"
     transform="translate(0,-263.13332)">
    <rect
       y="263.13333"
       x="-7.1289065e-07"
       height="33.866665"
       width="33.866665"
       id="rect291"
       style="opacity:1;fill:none;fill-opacity:1;stroke:none;stroke-width:0.26458332;stroke-miterlimit:4;stroke-dasharray:none;stroke-dashoffset:0;stroke-opacity:1" />
    <path
       style="opacity:1;fill:#000000;fill-opacity:1;stroke:none;stroke-width:0.26458332;stroke-miterlimit:4;stroke-dasharray:none;stroke-dashoffset:0;stroke-opacity:1"
       d="m 25.64417,268.48933 -1.517737,1.51774 a 12.699999,12.699999 0 0 1 4.97954,10.06398 12.699999,12.699999 0 0 1 -4.974889,10.06916 l 1.503784,1.50378 a 14.816666,14.816666 0 0 0 5.587772,-11.57294 14.816666,14.816666 0 0 0 -5.57847,-11.58172 z m -11.370883,0.7152 c -0.368376,-0.0117 -0.741027,0.0758 -1.045931,0.27906 l -6.3499994,4.23333 H 4.7606899 c -1.1726328,0 -2.1166665,0.94404 -2.1166665,2.11667 v 8.46666 c 0,1.17264 0.9440337,2.11667 2.1166665,2.11667 h 2.1166667 l 6.3499994,4.23333 c 0.779057,0.87643 2.645834,0.11431 2.645834,-1.05833 v -19.05 c 0,-0.80618 -0.789474,-1.31164 -1.599903,-1.33739 z m 8.343161,2.31252 -1.514637,1.51464 a 8.466666,8.466666 0 0 1 3.770829,7.03936 8.466666,8.466666 0 0 1 -3.771862,7.03833 l 1.516703,1.51722 a 10.583332,10.583332 0 0 0 4.371826,-8.55555 10.583332,10.583332 0 0 0 -4.372859,-8.554 z m -8.859925,0.0832 v 16.93334 L 7.4065232,284.30025 H 4.7606899 v -8.46666 h 2.6458333 z m 5.806364,2.97036 -1.576648,1.57665 a 4.233333,4.233333 0 0 1 2.653068,3.92379 4.233333,4.233333 0 0 1 -2.652551,3.92431 l 1.578198,1.5782 a 6.3499999,6.3499999 0 0 0 3.19102,-5.50251 6.3499999,6.3499999 0 0 0 -3.193087,-5.50044 z"
       id="path362"
       inkscape:connector-curvature="0" />
  </g>
</svg>
