<?xml version="1.0" encoding="UTF-8" standalone="no"?>
<svg
   xmlns:dc="http://purl.org/dc/elements/1.1/"
   xmlns:cc="http://creativecommons.org/ns#"
   xmlns:rdf="http://www.w3.org/1999/02/22-rdf-syntax-ns#"
   xmlns:svg="http://www.w3.org/2000/svg"
   xmlns="http://www.w3.org/2000/svg"
   id="svg320"
   version="1.1"
   viewBox="0 0 33.866666 33.866668"
   height="128"
   width="128">
  <defs
     id="defs314" />
  <metadata
     id="metadata317">
    <rdf:RDF>
      <cc:Work
         rdf:about="">
        <dc:format>image/svg+xml</dc:format>
        <dc:type
           rdf:resource="http://purl.org/dc/dcmitype/StillImage" />
        <dc:title></dc:title>
      </cc:Work>
    </rdf:RDF>
  </metadata>
  <g
     transform="translate(0,-263.13332)"
     id="layer1">
    <rect
       style="opacity:1;fill:none;fill-opacity:1;stroke:none;stroke-width:0.26458332;stroke-miterlimit:4;stroke-dasharray:none;stroke-dashoffset:0;stroke-opacity:1"
       id="rect291"
       width="33.866665"
       height="33.866665"
       x="-7.1289065e-07"
       y="263.13333" />
    <path
       id="path283"
       d="m 25.07289,268.08211 -1.05678,1.83038 c 3.21602,1.90214 5.19072,6.41747 5.19555,10.1539 -0.005,3.73635 -1.98001,8.25146 -5.19607,10.15339 l 1.0573,1.83141 c 3.87082,-2.27952 6.24945,-7.49265 6.25543,-11.9848 -0.006,-4.49196 -2.38477,-9.70485 -6.25543,-11.98428 z m -9.91205,1.04283 c -0.36641,-0.009 -0.7217,0.099 -0.98082,0.35811 l -5.29167,4.23334 H 4.65502 c -1.17263,0 -2.11667,0.94402 -2.11667,2.11666 v 8.46668 c 0,1.17263 0.94404,2.11666 2.11667,2.11666 h 4.23333 l 5.29167,4.23333 c 0.25911,0.25912 0.61493,0.36712 0.98134,0.35812 0.8061,-0.0205 1.66449,-0.61027 1.66449,-1.41645 v -19.05 c 0,-0.80619 -0.85891,-1.39599 -1.66501,-1.41645 z m 7.79797,2.61845 -1.0573,1.83193 c 1.90653,1.14684 3.07378,4.26619 3.07681,6.49107 -0.003,2.22515 -1.16964,5.34495 -3.0763,6.49211 l 1.05627,1.83038 c 2.56147,-1.52439 4.13264,-5.34174 4.1367,-8.32249 -0.004,-2.98082 -1.57476,-6.79839 -4.13618,-8.323 z m -8.24963,0.3855 v 15.875 l -5.29166,-3.70416 h -4.7625 v -8.46668 h 4.7625 z m 6.13555,3.27629 -1.05834,1.83296 c 0.59756,0.39057 0.95798,2.11438 0.9586,2.82825 -3.3e-4,0.71396 -0.36057,2.43798 -0.95808,2.82878 l 1.05678,1.83036 c 1.25189,-0.7688 2.01569,-3.19003 2.01797,-4.65914 -0.001,-1.46964 -0.76481,-3.89177 -2.01693,-4.66121 z"
       style="opacity:1;fill:#000000;fill-opacity:1;stroke:none;stroke-width:0.50892574;stroke-miterlimit:4;stroke-dasharray:none;stroke-dashoffset:0;stroke-opacity:1" />
  </g>
</svg>
