<?xml version="1.0" encoding="UTF-8" standalone="no"?>
<svg
   xmlns:dc="http://purl.org/dc/elements/1.1/"
   xmlns:cc="http://creativecommons.org/ns#"
   xmlns:rdf="http://www.w3.org/1999/02/22-rdf-syntax-ns#"
   xmlns:svg="http://www.w3.org/2000/svg"
   xmlns="http://www.w3.org/2000/svg"
   id="svg7679"
   version="1.1"
   viewBox="0 0 33.866666 33.866668"
   height="128"
   width="128">
  <defs
     id="defs7673" />
  <metadata
     id="metadata7676">
    <rdf:RDF>
      <cc:Work
         rdf:about="">
        <dc:format>image/svg+xml</dc:format>
        <dc:type
           rdf:resource="http://purl.org/dc/dcmitype/StillImage" />
        <dc:title></dc:title>
      </cc:Work>
    </rdf:RDF>
  </metadata>
  <g
     transform="translate(0,-263.13332)"
     id="layer1">
    <path
       id="path5055"
       d="m 24.07759,267.36665 a 4.7625002,4.7625002 0 0 0 -4.7625,4.7625 4.7625002,4.7625002 0 0 0 0.29715,1.6459 9.5249994,9.5249994 0 0 0 -3.82303,3.73982 11.641666,11.641666 0 0 1 1.71928,1.25987 7.408333,7.408333 0 0 1 3.2675,-3.21996 4.7625002,4.7625002 0 0 0 3.3016,1.33687 4.7625002,4.7625002 0 0 0 3.30006,-1.33118 7.408333,7.408333 0 0 1 4.10776,6.62285 7.408333,7.408333 0 0 1 -0.31212,2.11667 H 20.98734 a 11.641666,11.641666 0 0 1 0.38654,2.11666 h 11.22309 a 9.5249994,9.5249994 0 0 0 1.00511,-4.23333 9.5249994,9.5249994 0 0 0 -5.06222,-8.40724 4.7625002,4.7625002 0 0 0 0.30023,-1.64693 4.7625002,4.7625002 0 0 0 -4.7625,-4.7625 z m 0,2.11667 a 2.6458332,2.6458332 0 0 1 2.64584,2.64583 2.6458332,2.6458332 0 0 1 -2.64584,2.64584 2.6458332,2.6458332 0 0 1 -2.64583,-2.64584 2.6458332,2.6458332 0 0 1 2.64583,-2.64583 z m -14.2875,3.175 a 4.7625002,4.7625002 0 0 0 -4.7625,4.7625 4.7625002,4.7625002 0 0 0 0.29715,1.64589 9.5249994,9.5249994 0 0 0 -5.06016,8.40828 9.5249994,9.5249994 0 0 0 0.99735,4.23333 h 17.04754 a 9.5249994,9.5249994 0 0 0 1.00511,-4.23333 9.5249994,9.5249994 0 0 0 -5.06222,-8.40724 4.7625002,4.7625002 0 0 0 0.30023,-1.64693 4.7625002,4.7625002 0 0 0 -4.7625,-4.7625 z m 0,2.11667 a 2.6458332,2.6458332 0 0 1 2.64584,2.64583 2.6458332,2.6458332 0 0 1 -2.64584,2.64583 2.6458332,2.6458332 0 0 1 -2.64583,-2.64583 2.6458332,2.6458332 0 0 1 2.64583,-2.64583 z m -3.3016,6.07146 a 4.7625002,4.7625002 0 0 0 3.3016,1.33687 4.7625002,4.7625002 0 0 0 3.30006,-1.33119 7.408333,7.408333 0 0 1 4.10776,6.62286 7.408333,7.408333 0 0 1 -0.31212,2.11666 H 2.69647 a 7.408333,7.408333 0 0 1 -0.31522,-2.11666 7.408333,7.408333 0 0 1 4.10724,-6.62854 z"
       style="opacity:1;fill:#000000;fill-opacity:1;stroke:none;stroke-width:0.07018422;stroke-miterlimit:4;stroke-dasharray:none;stroke-dashoffset:0;stroke-opacity:1" />
  </g>
</svg>
