<?xml version="1.0" encoding="UTF-8" standalone="no"?>
<svg
   xmlns:dc="http://purl.org/dc/elements/1.1/"
   xmlns:cc="http://creativecommons.org/ns#"
   xmlns:rdf="http://www.w3.org/1999/02/22-rdf-syntax-ns#"
   xmlns:svg="http://www.w3.org/2000/svg"
   xmlns="http://www.w3.org/2000/svg"
   id="svg5889"
   version="1.1"
   viewBox="0 0 33.866666 33.866668"
   height="128"
   width="128">
  <defs
     id="defs5883" />
  <metadata
     id="metadata5886">
    <rdf:RDF>
      <cc:Work
         rdf:about="">
        <dc:format>image/svg+xml</dc:format>
        <dc:type
           rdf:resource="http://purl.org/dc/dcmitype/StillImage" />
        <dc:title></dc:title>
      </cc:Work>
    </rdf:RDF>
  </metadata>
  <g
     transform="translate(0,-263.13332)"
     id="layer1">
    <path
       id="rect5074"
       d="m 11.95946,264.56424 c -0.90241,0.0348 -1.71193,0.64808 -1.95852,1.56838 l -0.33073,1.23403 H 2.11667 C 0.94404,267.36665 0,268.31069 0,269.48332 v 12.7 c 0,1.17263 0.94404,2.11667 2.11667,2.11667 h 3.01636 l -2.25415,8.41189 c -0.3035,1.13267 0.36441,2.28859 1.49707,2.59208 l 1.02216,0.27389 c 1.13268,0.3035 2.28912,-0.36387 2.5926,-1.49655 l 2.62051,-9.78131 h 12.6437 l 2.62102,9.78131 c 0.3035,1.13268 1.45991,1.80005 2.5926,1.49655 l 1.02216,-0.27389 c 1.13268,-0.30349 1.80004,-1.45941 1.49656,-2.59208 l -2.25361,-8.41189 H 31.75 c 1.17264,0 2.11667,-0.94404 2.11667,-2.11667 v -12.7 c 0,-1.17263 -0.94403,-2.11667 -2.11667,-2.11667 h -7.55356 l -0.33073,-1.23403 c -0.24659,-0.9203 -1.05608,-1.53356 -1.95852,-1.56838 -0.20826,-0.008 -0.4217,0.0149 -0.63408,0.0718 l -1.02216,0.27388 c -1.08752,0.29141 -1.74387,1.3687 -1.52599,2.4567 h -3.58378 c 0.21789,-1.088 -0.43791,-2.16529 -1.52548,-2.4567 l -1.02216,-0.27388 c -0.21239,-0.0569 -0.4258,-0.0799 -0.63408,-0.0718 z m 0.2367,2.17816 c 0.034,-0.005 0.0695,-0.003 0.10491,0.007 l 0.51106,0.13694 c 0.14158,0.0379 0.22501,0.18243 0.18706,0.32401 l -0.0419,0.15658 h -1.09554 l 0.11526,-0.43046 c 0.0284,-0.10619 0.11694,-0.17969 0.2191,-0.19379 z m 9.47436,0 c 0.10215,0.0141 0.19066,0.0876 0.2191,0.19379 l 0.11522,0.43046 h -1.09603 l -0.0419,-0.15658 c -0.0379,-0.14158 0.0455,-0.28607 0.18706,-0.32401 l 0.5116,-0.13694 c 0.0354,-0.01 0.0708,-0.0114 0.10491,-0.007 z m -18.7601,2.74092 h 28.04583 c 0.43974,0 0.79375,0.35401 0.79375,0.79375 v 11.1125 c 0,0.43974 -0.35401,0.79375 -0.79375,0.79375 H 2.91042 c -0.43974,0 -0.79375,-0.35401 -0.79375,-0.79375 v -11.1125 c 0,-0.43974 0.35401,-0.79375 0.79375,-0.79375 z m 4.41367,14.81667 h 1.09607 l -2.40554,8.97774 c -0.0379,0.14159 -0.18243,0.22501 -0.32401,0.18707 l -0.5116,-0.13694 c -0.14158,-0.0379 -0.225,-0.18243 -0.18706,-0.32401 z m 18.12243,0 h 1.09553 l 2.33214,8.70386 c 0.038,0.14158 -0.0455,0.28607 -0.18706,0.32401 l -0.51107,0.13694 c -0.1416,0.0379 -0.28609,-0.0455 -0.324,-0.18707 z"
       style="opacity:1;fill:#000000;fill-opacity:1;stroke:none;stroke-width:0.26458332;stroke-miterlimit:4;stroke-dasharray:none;stroke-dashoffset:0;stroke-opacity:1" />
  </g>
</svg>
